<svg width="885" height="255" viewBox="0 0 885 255" fill="none" xmlns="http://www.w3.org/2000/svg">
<path d="M28.4 240.6C29.56 240.6 30.56 240.84 31.4 241.32C32.24 241.787 32.94 242.48 33.5 243.4L32.16 244.44C31.6667 243.587 31.1067 242.987 30.48 242.64C29.8667 242.28 29.12 242.1 28.24 242.1C27.5333 242.1 26.9467 242.2 26.48 242.4C26.0267 242.6 25.6933 242.867 25.48 243.2C25.2667 243.52 25.16 243.887 25.16 244.3C25.16 244.767 25.3067 245.18 25.6 245.54C25.8933 245.887 26.48 246.16 27.36 246.36L30.22 247C31.4867 247.28 32.3667 247.707 32.86 248.28C33.3667 248.84 33.62 249.54 33.62 250.38C33.62 251.127 33.4067 251.793 32.98 252.38C32.5667 252.953 31.98 253.4 31.22 253.72C30.46 254.04 29.5667 254.2 28.54 254.2C27.58 254.2 26.7333 254.073 26 253.82C25.28 253.553 24.66 253.2 24.14 252.76C23.62 252.32 23.1933 251.827 22.86 251.28L24.26 250.14C24.5133 250.647 24.84 251.093 25.24 251.48C25.64 251.867 26.12 252.167 26.68 252.38C27.2533 252.593 27.9067 252.7 28.64 252.7C29.32 252.7 29.9067 252.62 30.4 252.46C30.9067 252.287 31.2933 252.04 31.56 251.72C31.8267 251.387 31.96 250.987 31.96 250.52C31.96 250.093 31.82 249.713 31.54 249.38C31.26 249.033 30.7333 248.773 29.96 248.6L26.86 247.9C26.0467 247.713 25.3867 247.46 24.88 247.14C24.3867 246.807 24.0267 246.42 23.8 245.98C23.5867 245.527 23.48 245.04 23.48 244.52C23.48 243.813 23.6733 243.167 24.06 242.58C24.46 241.98 25.0267 241.5 25.76 241.14C26.5067 240.78 27.3867 240.6 28.4 240.6ZM40.1948 254.2C39.5548 254.2 38.9482 254.08 38.3748 253.84C37.8148 253.6 37.3548 253.213 36.9948 252.68C36.6482 252.133 36.4748 251.427 36.4748 250.56V244H38.0748V250.14C38.0748 251.153 38.2948 251.853 38.7348 252.24C39.1748 252.613 39.7948 252.8 40.5948 252.8C40.9682 252.8 41.3348 252.74 41.6948 252.62C42.0548 252.487 42.3748 252.287 42.6548 252.02C42.9482 251.74 43.1748 251.387 43.3348 250.96C43.5082 250.533 43.5948 250.027 43.5948 249.44V244H45.1948V254H43.7948L43.6948 252.48C43.3482 253.08 42.8748 253.52 42.2748 253.8C41.6882 254.067 40.9948 254.2 40.1948 254.2ZM48.9186 254V244H50.3186L50.4586 246.24L50.1986 246.02C50.4119 245.487 50.6986 245.06 51.0586 244.74C51.4186 244.407 51.8319 244.167 52.2986 244.02C52.7786 243.873 53.2719 243.8 53.7786 243.8C54.4986 243.8 55.1519 243.94 55.7386 244.22C56.3253 244.487 56.7919 244.9 57.1386 245.46C57.4986 246.02 57.6786 246.733 57.6786 247.6V254H56.0786V248.16C56.0786 247.053 55.8386 246.287 55.3586 245.86C54.8919 245.42 54.3119 245.2 53.6186 245.2C53.1386 245.2 52.6586 245.313 52.1786 245.54C51.6986 245.767 51.2986 246.133 50.9786 246.64C50.6719 247.147 50.5186 247.827 50.5186 248.68V254H48.9186Z" fill="black"/>
<rect y="49" width="38" height="175" rx="4" fill="#101036"/>
<rect x="44" y="50" width="36" height="173" rx="3" fill="white" stroke="#101036" stroke-width="2"/>
<path d="M60.74 33.2C59.5667 33.2 58.62 32.9333 57.9 32.4C57.1933 31.8667 56.6467 31.1267 56.26 30.18L57.82 29.36C58.0333 30.0533 58.36 30.62 58.8 31.06C59.2533 31.4867 59.9133 31.7 60.78 31.7C61.3933 31.7 61.9133 31.5867 62.34 31.36C62.78 31.1333 63.12 30.8133 63.36 30.4C63.6 29.9733 63.72 29.4667 63.72 28.88C63.72 28.2533 63.6067 27.7333 63.38 27.32C63.1667 26.8933 62.8533 26.5733 62.44 26.36C62.0267 26.1467 61.52 26.04 60.92 26.04C60.4933 26.04 60.0933 26.0867 59.72 26.18C59.36 26.26 59.0333 26.3933 58.74 26.58C58.4467 26.7667 58.1933 27.0133 57.98 27.32L56.58 27.06L57.36 19.8H64.78V21.3H58.72L58.2 25.46L58.16 25.64H58.2C58.52 25.3067 58.9267 25.04 59.42 24.84C59.9267 24.64 60.5267 24.54 61.22 24.54C62.06 24.54 62.7867 24.72 63.4 25.08C64.0267 25.4267 64.5133 25.92 64.86 26.56C65.2067 27.2 65.38 27.9467 65.38 28.8C65.38 29.48 65.2667 30.0933 65.04 30.64C64.8133 31.1867 64.4933 31.6533 64.08 32.04C63.6667 32.4133 63.1733 32.7 62.6 32.9C62.04 33.1 61.42 33.2 60.74 33.2ZM72.1006 33.2C71.1273 33.2 70.2273 32.9933 69.4006 32.58C68.5873 32.1667 67.9606 31.58 67.5206 30.82L68.8806 29.84C69.174 30.4533 69.6006 30.9333 70.1606 31.28C70.734 31.6267 71.4206 31.8 72.2206 31.8C72.9273 31.8 73.4806 31.6667 73.8806 31.4C74.2806 31.12 74.4806 30.76 74.4806 30.32C74.4806 30.04 74.3873 29.7867 74.2006 29.56C74.0273 29.32 73.6873 29.1467 73.1806 29.04L70.7806 28.54C69.8073 28.34 69.1073 28.0067 68.6806 27.54C68.2673 27.0733 68.0606 26.4933 68.0606 25.8C68.0606 25.2533 68.214 24.7533 68.5206 24.3C68.8406 23.8467 69.2873 23.4867 69.8606 23.22C70.4473 22.94 71.134 22.8 71.9206 22.8C72.9073 22.8 73.7406 22.9933 74.4206 23.38C75.1006 23.7667 75.6073 24.3133 75.9406 25.02L74.6006 25.9C74.374 25.3133 74.0073 24.8867 73.5006 24.62C72.994 24.34 72.4673 24.2 71.9206 24.2C71.4406 24.2 71.0273 24.2667 70.6806 24.4C70.3473 24.5333 70.0873 24.72 69.9006 24.96C69.7273 25.1867 69.6406 25.4467 69.6406 25.74C69.6406 26.0333 69.7406 26.3067 69.9406 26.56C70.1406 26.8 70.514 26.9733 71.0606 27.08L73.5606 27.6C74.494 27.7867 75.1473 28.0933 75.5206 28.52C75.894 28.9467 76.0806 29.4667 76.0806 30.08C76.0806 30.7067 75.914 31.26 75.5806 31.74C75.2473 32.2067 74.7806 32.5667 74.1806 32.82C73.5806 33.0733 72.8873 33.2 72.1006 33.2Z" fill="black"/>
<path d="M167.92 240.8V254H166.4V245.7L166.58 242.22H166.56L162.22 254H160.86L156.52 242.22H156.5L156.68 245.7V254H155.16V240.8H157.62L160.52 248.82L161.52 252.12H161.56L162.58 248.84L165.46 240.8H167.92ZM175.914 243.8C176.861 243.8 177.694 244.007 178.414 244.42C179.147 244.833 179.721 245.433 180.134 246.22C180.547 246.993 180.754 247.92 180.754 249C180.754 250.08 180.547 251.013 180.134 251.8C179.721 252.573 179.147 253.167 178.414 253.58C177.694 253.993 176.861 254.2 175.914 254.2C174.981 254.2 174.147 253.993 173.414 253.58C172.681 253.167 172.107 252.573 171.694 251.8C171.281 251.013 171.074 250.08 171.074 249C171.074 247.92 171.281 246.993 171.694 246.22C172.107 245.433 172.681 244.833 173.414 244.42C174.147 244.007 174.981 243.8 175.914 243.8ZM175.914 245.18C175.234 245.18 174.654 245.333 174.174 245.64C173.694 245.947 173.321 246.387 173.054 246.96C172.801 247.52 172.674 248.2 172.674 249C172.674 249.787 172.801 250.467 173.054 251.04C173.321 251.613 173.694 252.053 174.174 252.36C174.654 252.667 175.234 252.82 175.914 252.82C176.594 252.82 177.174 252.667 177.654 252.36C178.134 252.053 178.501 251.613 178.754 251.04C179.021 250.467 179.154 249.787 179.154 249C179.154 248.2 179.021 247.52 178.754 246.96C178.501 246.387 178.134 245.947 177.654 245.64C177.174 245.333 176.594 245.18 175.914 245.18ZM183.766 254V244H185.166L185.306 246.24L185.046 246.02C185.26 245.487 185.546 245.06 185.906 244.74C186.266 244.407 186.68 244.167 187.146 244.02C187.626 243.873 188.12 243.8 188.626 243.8C189.346 243.8 190 243.94 190.586 244.22C191.173 244.487 191.64 244.9 191.986 245.46C192.346 246.02 192.526 246.733 192.526 247.6V254H190.926V248.16C190.926 247.053 190.686 246.287 190.206 245.86C189.74 245.42 189.16 245.2 188.466 245.2C187.986 245.2 187.506 245.313 187.026 245.54C186.546 245.767 186.146 246.133 185.826 246.64C185.52 247.147 185.366 247.827 185.366 248.68V254H183.766Z" fill="black"/>
<rect x="133" y="49" width="38" height="175" rx="4" fill="#101036"/>
<rect x="177" y="131" width="36" height="92" rx="3" fill="white" stroke="#101036" stroke-width="2"/>
<path d="M151.74 33.2C150.567 33.2 149.62 32.9333 148.9 32.4C148.193 31.8667 147.647 31.1267 147.26 30.18L148.82 29.36C149.033 30.0533 149.36 30.62 149.8 31.06C150.253 31.4867 150.913 31.7 151.78 31.7C152.393 31.7 152.913 31.5867 153.34 31.36C153.78 31.1333 154.12 30.8133 154.36 30.4C154.6 29.9733 154.72 29.4667 154.72 28.88C154.72 28.2533 154.607 27.7333 154.38 27.32C154.167 26.8933 153.853 26.5733 153.44 26.36C153.027 26.1467 152.52 26.04 151.92 26.04C151.493 26.04 151.093 26.0867 150.72 26.18C150.36 26.26 150.033 26.3933 149.74 26.58C149.447 26.7667 149.193 27.0133 148.98 27.32L147.58 27.06L148.36 19.8H155.78V21.3H149.72L149.2 25.46L149.16 25.64H149.2C149.52 25.3067 149.927 25.04 150.42 24.84C150.927 24.64 151.527 24.54 152.22 24.54C153.06 24.54 153.787 24.72 154.4 25.08C155.027 25.4267 155.513 25.92 155.86 26.56C156.207 27.2 156.38 27.9467 156.38 28.8C156.38 29.48 156.267 30.0933 156.04 30.64C155.813 31.1867 155.493 31.6533 155.08 32.04C154.667 32.4133 154.173 32.7 153.6 32.9C153.04 33.1 152.42 33.2 151.74 33.2Z" fill="black"/>
<path d="M189.48 119V117.7C190.8 116.727 191.9 115.873 192.78 115.14C193.673 114.407 194.387 113.74 194.92 113.14C195.453 112.54 195.833 111.973 196.06 111.44C196.287 110.893 196.4 110.327 196.4 109.74C196.4 108.953 196.147 108.32 195.64 107.84C195.147 107.347 194.467 107.1 193.6 107.1C192.693 107.1 191.967 107.4 191.42 108C190.873 108.587 190.553 109.373 190.46 110.36L189.06 109.52C189.18 108.747 189.427 108.067 189.8 107.48C190.187 106.893 190.7 106.433 191.34 106.1C191.993 105.767 192.767 105.6 193.66 105.6C194.34 105.6 194.947 105.7 195.48 105.9C196.027 106.1 196.493 106.387 196.88 106.76C197.267 107.12 197.56 107.553 197.76 108.06C197.973 108.567 198.08 109.127 198.08 109.74C198.08 110.567 197.88 111.38 197.48 112.18C197.08 112.967 196.42 113.793 195.5 114.66C194.58 115.527 193.333 116.487 191.76 117.54V117.56C191.907 117.547 192.107 117.54 192.36 117.54C192.627 117.527 192.887 117.52 193.14 117.52C193.407 117.507 193.607 117.5 193.74 117.5H198.36V119H189.48ZM205.12 119.2C204.147 119.2 203.247 118.993 202.42 118.58C201.607 118.167 200.98 117.58 200.54 116.82L201.9 115.84C202.193 116.453 202.62 116.933 203.18 117.28C203.753 117.627 204.44 117.8 205.24 117.8C205.947 117.8 206.5 117.667 206.9 117.4C207.3 117.12 207.5 116.76 207.5 116.32C207.5 116.04 207.407 115.787 207.22 115.56C207.047 115.32 206.707 115.147 206.2 115.04L203.8 114.54C202.827 114.34 202.127 114.007 201.7 113.54C201.287 113.073 201.08 112.493 201.08 111.8C201.08 111.253 201.233 110.753 201.54 110.3C201.86 109.847 202.307 109.487 202.88 109.22C203.467 108.94 204.153 108.8 204.94 108.8C205.927 108.8 206.76 108.993 207.44 109.38C208.12 109.767 208.627 110.313 208.96 111.02L207.62 111.9C207.393 111.313 207.027 110.887 206.52 110.62C206.013 110.34 205.487 110.2 204.94 110.2C204.46 110.2 204.047 110.267 203.7 110.4C203.367 110.533 203.107 110.72 202.92 110.96C202.747 111.187 202.66 111.447 202.66 111.74C202.66 112.033 202.76 112.307 202.96 112.56C203.16 112.8 203.533 112.973 204.08 113.08L206.58 113.6C207.513 113.787 208.167 114.093 208.54 114.52C208.913 114.947 209.1 115.467 209.1 116.08C209.1 116.707 208.933 117.26 208.6 117.74C208.267 118.207 207.8 118.567 207.2 118.82C206.6 119.073 205.907 119.2 205.12 119.2Z" fill="black"/>
<path d="M300.44 240.8V242.3H295.84V254H294.24V242.3H289.64V240.8H300.44ZM305.242 254.2C304.602 254.2 303.995 254.08 303.422 253.84C302.862 253.6 302.402 253.213 302.042 252.68C301.695 252.133 301.522 251.427 301.522 250.56V244H303.122V250.14C303.122 251.153 303.342 251.853 303.782 252.24C304.222 252.613 304.842 252.8 305.642 252.8C306.015 252.8 306.382 252.74 306.742 252.62C307.102 252.487 307.422 252.287 307.702 252.02C307.995 251.74 308.222 251.387 308.382 250.96C308.555 250.533 308.642 250.027 308.642 249.44V244H310.242V254H308.842L308.742 252.48C308.395 253.08 307.922 253.52 307.322 253.8C306.735 254.067 306.042 254.2 305.242 254.2ZM318.145 254.2C317.199 254.2 316.352 253.993 315.605 253.58C314.872 253.167 314.299 252.573 313.885 251.8C313.472 251.013 313.265 250.08 313.265 249C313.265 247.92 313.472 246.993 313.885 246.22C314.299 245.433 314.865 244.833 315.585 244.42C316.305 244.007 317.125 243.8 318.045 243.8C318.979 243.8 319.772 244 320.425 244.4C321.092 244.8 321.599 245.347 321.945 246.04C322.292 246.72 322.465 247.487 322.465 248.34C322.465 248.567 322.459 248.773 322.445 248.96C322.432 249.147 322.412 249.313 322.385 249.46H314.305V248.04H321.685L320.865 248.2C320.865 247.24 320.599 246.5 320.065 245.98C319.545 245.46 318.859 245.2 318.005 245.2C317.352 245.2 316.785 245.353 316.305 245.66C315.839 245.953 315.472 246.387 315.205 246.96C314.952 247.52 314.825 248.2 314.825 249C314.825 249.787 314.959 250.467 315.225 251.04C315.492 251.613 315.865 252.053 316.345 252.36C316.839 252.653 317.425 252.8 318.105 252.8C318.839 252.8 319.432 252.66 319.885 252.38C320.352 252.1 320.725 251.72 321.005 251.24L322.265 251.98C322.012 252.433 321.685 252.827 321.285 253.16C320.899 253.493 320.439 253.753 319.905 253.94C319.385 254.113 318.799 254.2 318.145 254.2Z" fill="black"/>
<rect x="266" y="204" width="38" height="20" rx="4" fill="#101036"/>
<rect x="310" y="21" width="36" height="202" rx="3" fill="white" stroke="#101036" stroke-width="2"/>
<path d="M285.22 193.2C283.727 193.2 282.533 192.62 281.64 191.46C280.747 190.3 280.3 188.613 280.3 186.4C280.3 184.187 280.747 182.5 281.64 181.34C282.533 180.18 283.727 179.6 285.22 179.6C286.727 179.6 287.92 180.18 288.8 181.34C289.693 182.5 290.14 184.187 290.14 186.4C290.14 188.613 289.693 190.3 288.8 191.46C287.92 192.62 286.727 193.2 285.22 193.2ZM285.22 191.76C285.927 191.76 286.52 191.56 287 191.16C287.493 190.747 287.86 190.14 288.1 189.34C288.353 188.54 288.48 187.56 288.48 186.4C288.48 185.24 288.353 184.26 288.1 183.46C287.86 182.66 287.493 182.06 287 181.66C286.52 181.247 285.927 181.04 285.22 181.04C284.513 181.04 283.913 181.247 283.42 181.66C282.94 182.06 282.573 182.66 282.32 183.46C282.08 184.26 281.96 185.24 281.96 186.4C281.96 187.56 282.08 188.54 282.32 189.34C282.573 190.14 282.94 190.747 283.42 191.16C283.913 191.56 284.513 191.76 285.22 191.76Z" fill="black"/>
<path d="M317.8 0.799999H327.52V2.3C326.413 3.47333 325.507 4.68 324.8 5.92C324.107 7.14667 323.6 8.42667 323.28 9.76C322.96 11.0933 322.8 12.5067 322.8 14H321.16C321.16 12.52 321.34 11.0733 321.7 9.66C322.073 8.23333 322.633 6.86667 323.38 5.56C324.127 4.25333 325.053 3.03333 326.16 1.9L326.42 2.3H317.8V0.799999ZM333.28 14.2C332.307 14.2 331.407 13.9933 330.58 13.58C329.767 13.1667 329.14 12.58 328.7 11.82L330.06 10.84C330.354 11.4533 330.78 11.9333 331.34 12.28C331.914 12.6267 332.6 12.8 333.4 12.8C334.107 12.8 334.66 12.6667 335.06 12.4C335.46 12.12 335.66 11.76 335.66 11.32C335.66 11.04 335.567 10.7867 335.38 10.56C335.207 10.32 334.867 10.1467 334.36 10.04L331.96 9.54C330.987 9.34 330.287 9.00667 329.86 8.54C329.447 8.07333 329.24 7.49333 329.24 6.8C329.24 6.25333 329.394 5.75333 329.7 5.3C330.02 4.84667 330.467 4.48667 331.04 4.22C331.627 3.94 332.314 3.8 333.1 3.8C334.087 3.8 334.92 3.99333 335.6 4.38C336.28 4.76667 336.787 5.31333 337.12 6.02L335.78 6.9C335.554 6.31333 335.187 5.88667 334.68 5.62C334.174 5.34 333.647 5.2 333.1 5.2C332.62 5.2 332.207 5.26667 331.86 5.4C331.527 5.53333 331.267 5.72 331.08 5.96C330.907 6.18667 330.82 6.44667 330.82 6.74C330.82 7.03333 330.92 7.30667 331.12 7.56C331.32 7.8 331.694 7.97333 332.24 8.08L334.74 8.6C335.674 8.78667 336.327 9.09333 336.7 9.52C337.074 9.94667 337.26 10.4667 337.26 11.08C337.26 11.7067 337.094 12.26 336.76 12.74C336.427 13.2067 335.96 13.5667 335.36 13.82C334.76 14.0733 334.067 14.2 333.28 14.2Z" fill="black"/>
<path d="M429.62 254L425.72 240.8H427.38L430.64 252.54L433.74 240.8H435.56L438.66 252.58L441.92 240.8H443.5L439.62 254H437.64L435.3 245.44L434.62 242.46H434.6L433.92 245.44L431.6 254H429.62ZM449.575 254.2C448.628 254.2 447.782 253.993 447.035 253.58C446.302 253.167 445.728 252.573 445.315 251.8C444.902 251.013 444.695 250.08 444.695 249C444.695 247.92 444.902 246.993 445.315 246.22C445.728 245.433 446.295 244.833 447.015 244.42C447.735 244.007 448.555 243.8 449.475 243.8C450.408 243.8 451.202 244 451.855 244.4C452.522 244.8 453.028 245.347 453.375 246.04C453.722 246.72 453.895 247.487 453.895 248.34C453.895 248.567 453.888 248.773 453.875 248.96C453.862 249.147 453.842 249.313 453.815 249.46H445.735V248.04H453.115L452.295 248.2C452.295 247.24 452.028 246.5 451.495 245.98C450.975 245.46 450.288 245.2 449.435 245.2C448.782 245.2 448.215 245.353 447.735 245.66C447.268 245.953 446.902 246.387 446.635 246.96C446.382 247.52 446.255 248.2 446.255 249C446.255 249.787 446.388 250.467 446.655 251.04C446.922 251.613 447.295 252.053 447.775 252.36C448.268 252.653 448.855 252.8 449.535 252.8C450.268 252.8 450.862 252.66 451.315 252.38C451.782 252.1 452.155 251.72 452.435 251.24L453.695 251.98C453.442 252.433 453.115 252.827 452.715 253.16C452.328 253.493 451.868 253.753 451.335 253.94C450.815 254.113 450.228 254.2 449.575 254.2ZM460.838 254.2C460.011 254.2 459.251 253.993 458.558 253.58C457.865 253.167 457.311 252.573 456.898 251.8C456.485 251.013 456.278 250.08 456.278 249C456.278 247.893 456.498 246.953 456.938 246.18C457.378 245.407 457.958 244.82 458.678 244.42C459.398 244.007 460.171 243.8 460.998 243.8C461.825 243.8 462.538 244.013 463.138 244.44C463.751 244.867 464.158 245.433 464.358 246.14L464.158 246.28V239.4H465.758V254H464.358L464.218 251.58L464.438 251.46C464.345 252.047 464.118 252.547 463.758 252.96C463.411 253.36 462.978 253.667 462.458 253.88C461.951 254.093 461.411 254.2 460.838 254.2ZM460.998 252.8C461.638 252.8 462.191 252.64 462.658 252.32C463.138 252 463.505 251.547 463.758 250.96C464.025 250.36 464.158 249.66 464.158 248.86C464.158 248.1 464.025 247.447 463.758 246.9C463.505 246.353 463.145 245.933 462.678 245.64C462.225 245.347 461.691 245.2 461.078 245.2C460.065 245.2 459.278 245.547 458.718 246.24C458.158 246.933 457.878 247.853 457.878 249C457.878 250.147 458.151 251.067 458.698 251.76C459.245 252.453 460.011 252.8 460.998 252.8Z" fill="black"/>
<rect x="399" y="49" width="38" height="175" rx="4" fill="#101036"/>
<rect x="443" y="125" width="36" height="98" rx="3" fill="white" stroke="#101036" stroke-width="2"/>
<path d="M417.74 33.2C416.567 33.2 415.62 32.9333 414.9 32.4C414.193 31.8667 413.647 31.1267 413.26 30.18L414.82 29.36C415.033 30.0533 415.36 30.62 415.8 31.06C416.253 31.4867 416.913 31.7 417.78 31.7C418.393 31.7 418.913 31.5867 419.34 31.36C419.78 31.1333 420.12 30.8133 420.36 30.4C420.6 29.9733 420.72 29.4667 420.72 28.88C420.72 28.2533 420.607 27.7333 420.38 27.32C420.167 26.8933 419.853 26.5733 419.44 26.36C419.027 26.1467 418.52 26.04 417.92 26.04C417.493 26.04 417.093 26.0867 416.72 26.18C416.36 26.26 416.033 26.3933 415.74 26.58C415.447 26.7667 415.193 27.0133 414.98 27.32L413.58 27.06L414.36 19.8H421.78V21.3H415.72L415.2 25.46L415.16 25.64H415.2C415.52 25.3067 415.927 25.04 416.42 24.84C416.927 24.64 417.527 24.54 418.22 24.54C419.06 24.54 419.787 24.72 420.4 25.08C421.027 25.4267 421.513 25.92 421.86 26.56C422.207 27.2 422.38 27.9467 422.38 28.8C422.38 29.48 422.267 30.0933 422.04 30.64C421.813 31.1867 421.493 31.6533 421.08 32.04C420.667 32.4133 420.173 32.7 419.6 32.9C419.04 33.1 418.42 33.2 417.74 33.2Z" fill="black"/>
<path d="M459.8 113.2C458.627 113.2 457.587 112.927 456.68 112.38C455.787 111.82 455.18 111.053 454.86 110.08L456.46 109.26C456.62 109.753 456.84 110.187 457.12 110.56C457.4 110.92 457.767 111.2 458.22 111.4C458.687 111.6 459.267 111.7 459.96 111.7C460.547 111.7 461.04 111.593 461.44 111.38C461.84 111.167 462.147 110.88 462.36 110.52C462.573 110.147 462.68 109.72 462.68 109.24C462.68 108.76 462.587 108.36 462.4 108.04C462.227 107.72 461.947 107.487 461.56 107.34C461.173 107.18 460.667 107.1 460.04 107.1C459.893 107.1 459.733 107.107 459.56 107.12C459.387 107.12 459.207 107.133 459.02 107.16V105.56C459.14 105.573 459.253 105.58 459.36 105.58C459.48 105.58 459.587 105.58 459.68 105.58C460.653 105.58 461.347 105.393 461.76 105.02C462.173 104.633 462.38 104.033 462.38 103.22C462.38 102.527 462.167 102 461.74 101.64C461.313 101.28 460.707 101.1 459.92 101.1C459.08 101.1 458.44 101.287 458 101.66C457.56 102.02 457.213 102.513 456.96 103.14L455.44 102.42C455.653 101.86 455.973 101.367 456.4 100.94C456.827 100.513 457.34 100.18 457.94 99.94C458.553 99.7 459.227 99.58 459.96 99.58C460.88 99.58 461.64 99.74 462.24 100.06C462.84 100.367 463.287 100.78 463.58 101.3C463.887 101.82 464.04 102.393 464.04 103.02C464.04 103.5 463.973 103.933 463.84 104.32C463.707 104.693 463.52 105.02 463.28 105.3C463.053 105.58 462.793 105.807 462.5 105.98C462.207 106.14 461.893 106.247 461.56 106.3V106.34C462 106.353 462.387 106.44 462.72 106.6C463.067 106.76 463.36 106.973 463.6 107.24C463.84 107.507 464.02 107.813 464.14 108.16C464.273 108.493 464.34 108.847 464.34 109.22C464.34 109.993 464.147 110.68 463.76 111.28C463.387 111.88 462.86 112.353 462.18 112.7C461.5 113.033 460.707 113.2 459.8 113.2ZM471.12 113.2C470.147 113.2 469.247 112.993 468.42 112.58C467.607 112.167 466.98 111.58 466.54 110.82L467.9 109.84C468.193 110.453 468.62 110.933 469.18 111.28C469.753 111.627 470.44 111.8 471.24 111.8C471.947 111.8 472.5 111.667 472.9 111.4C473.3 111.12 473.5 110.76 473.5 110.32C473.5 110.04 473.407 109.787 473.22 109.56C473.047 109.32 472.707 109.147 472.2 109.04L469.8 108.54C468.827 108.34 468.127 108.007 467.7 107.54C467.287 107.073 467.08 106.493 467.08 105.8C467.08 105.253 467.233 104.753 467.54 104.3C467.86 103.847 468.307 103.487 468.88 103.22C469.467 102.94 470.153 102.8 470.94 102.8C471.927 102.8 472.76 102.993 473.44 103.38C474.12 103.767 474.627 104.313 474.96 105.02L473.62 105.9C473.393 105.313 473.027 104.887 472.52 104.62C472.013 104.34 471.487 104.2 470.94 104.2C470.46 104.2 470.047 104.267 469.7 104.4C469.367 104.533 469.107 104.72 468.92 104.96C468.747 105.187 468.66 105.447 468.66 105.74C468.66 106.033 468.76 106.307 468.96 106.56C469.16 106.8 469.533 106.973 470.08 107.08L472.58 107.6C473.513 107.787 474.167 108.093 474.54 108.52C474.913 108.947 475.1 109.467 475.1 110.08C475.1 110.707 474.933 111.26 474.6 111.74C474.267 112.207 473.8 112.567 473.2 112.82C472.6 113.073 471.907 113.2 471.12 113.2Z" fill="black"/>
<path d="M565.44 240.8V242.3H560.84V254H559.24V242.3H554.64V240.8H565.44ZM567.54 254V239.4H569.14V245.5C569.486 244.9 569.946 244.467 570.52 244.2C571.093 243.933 571.72 243.8 572.4 243.8C573.12 243.8 573.773 243.94 574.36 244.22C574.946 244.487 575.413 244.9 575.76 245.46C576.12 246.02 576.3 246.733 576.3 247.6V254H574.7V248.16C574.7 247.053 574.46 246.287 573.98 245.86C573.513 245.42 572.933 245.2 572.24 245.2C571.76 245.2 571.28 245.313 570.8 245.54C570.32 245.767 569.92 246.14 569.6 246.66C569.293 247.167 569.14 247.847 569.14 248.7V254H567.54ZM583.543 254.2C582.903 254.2 582.296 254.08 581.723 253.84C581.163 253.6 580.703 253.213 580.343 252.68C579.996 252.133 579.823 251.427 579.823 250.56V244H581.423V250.14C581.423 251.153 581.643 251.853 582.083 252.24C582.523 252.613 583.143 252.8 583.942 252.8C584.316 252.8 584.683 252.74 585.043 252.62C585.403 252.487 585.723 252.287 586.003 252.02C586.296 251.74 586.523 251.387 586.683 250.96C586.856 250.533 586.943 250.027 586.943 249.44V244H588.543V254H587.143L587.043 252.48C586.696 253.08 586.223 253.52 585.623 253.8C585.036 254.067 584.343 254.2 583.543 254.2Z" fill="black"/>
<rect x="532" y="204" width="83" height="20" rx="4" fill="#101036"/>
<path d="M573.22 193.2C571.727 193.2 570.533 192.62 569.64 191.46C568.747 190.3 568.3 188.613 568.3 186.4C568.3 184.187 568.747 182.5 569.64 181.34C570.533 180.18 571.727 179.6 573.22 179.6C574.727 179.6 575.92 180.18 576.8 181.34C577.693 182.5 578.14 184.187 578.14 186.4C578.14 188.613 577.693 190.3 576.8 191.46C575.92 192.62 574.727 193.2 573.22 193.2ZM573.22 191.76C573.927 191.76 574.52 191.56 575 191.16C575.493 190.747 575.86 190.14 576.1 189.34C576.353 188.54 576.48 187.56 576.48 186.4C576.48 185.24 576.353 184.26 576.1 183.46C575.86 182.66 575.493 182.06 575 181.66C574.52 181.247 573.927 181.04 573.22 181.04C572.513 181.04 571.913 181.247 571.42 181.66C570.94 182.06 570.573 182.66 570.32 183.46C570.08 184.26 569.96 185.24 569.96 186.4C569.96 187.56 570.08 188.54 570.32 189.34C570.573 190.14 570.94 190.747 571.42 191.16C571.913 191.56 572.513 191.76 573.22 191.76Z" fill="black"/>
<path d="M700.4 242.3H692.76V246.56H698.72V248.06H692.76V254H691.16V240.8H700.4V242.3ZM702.247 254V244H703.547L703.767 245.64C704.047 245.027 704.453 244.567 704.987 244.26C705.533 243.953 706.193 243.8 706.967 243.8C707.14 243.8 707.327 243.813 707.527 243.84C707.74 243.867 707.92 243.92 708.067 244L707.787 245.46C707.64 245.407 707.48 245.367 707.307 245.34C707.133 245.313 706.887 245.3 706.567 245.3C706.153 245.3 705.733 245.42 705.307 245.66C704.893 245.9 704.547 246.267 704.267 246.76C703.987 247.24 703.847 247.853 703.847 248.6V254H702.247ZM711.211 242.08C710.851 242.08 710.557 241.973 710.331 241.76C710.117 241.533 710.011 241.24 710.011 240.88C710.011 240.52 710.117 240.233 710.331 240.02C710.557 239.793 710.851 239.68 711.211 239.68C711.571 239.68 711.857 239.793 712.071 240.02C712.297 240.233 712.411 240.52 712.411 240.88C712.411 241.24 712.297 241.533 712.071 241.76C711.857 241.973 711.571 242.08 711.211 242.08ZM712.011 244V254H710.411V244H712.011Z" fill="black"/>
<rect x="667" y="204" width="83" height="20" rx="4" fill="#101036"/>
<path d="M709.22 193.2C707.727 193.2 706.533 192.62 705.64 191.46C704.747 190.3 704.3 188.613 704.3 186.4C704.3 184.187 704.747 182.5 705.64 181.34C706.533 180.18 707.727 179.6 709.22 179.6C710.727 179.6 711.92 180.18 712.8 181.34C713.693 182.5 714.14 184.187 714.14 186.4C714.14 188.613 713.693 190.3 712.8 191.46C711.92 192.62 710.727 193.2 709.22 193.2ZM709.22 191.76C709.927 191.76 710.52 191.56 711 191.16C711.493 190.747 711.86 190.14 712.1 189.34C712.353 188.54 712.48 187.56 712.48 186.4C712.48 185.24 712.353 184.26 712.1 183.46C711.86 182.66 711.493 182.06 711 181.66C710.52 181.247 709.927 181.04 709.22 181.04C708.513 181.04 707.913 181.247 707.42 181.66C706.94 182.06 706.573 182.66 706.32 183.46C706.08 184.26 705.96 185.24 705.96 186.4C705.96 187.56 706.08 188.54 706.32 189.34C706.573 190.14 706.94 190.747 707.42 191.16C707.913 191.56 708.513 191.76 709.22 191.76Z" fill="black"/>
<path d="M830.4 240.6C831.56 240.6 832.56 240.84 833.4 241.32C834.24 241.787 834.94 242.48 835.5 243.4L834.16 244.44C833.667 243.587 833.107 242.987 832.48 242.64C831.867 242.28 831.12 242.1 830.24 242.1C829.533 242.1 828.947 242.2 828.48 242.4C828.027 242.6 827.693 242.867 827.48 243.2C827.267 243.52 827.16 243.887 827.16 244.3C827.16 244.767 827.307 245.18 827.6 245.54C827.893 245.887 828.48 246.16 829.36 246.36L832.22 247C833.487 247.28 834.367 247.707 834.86 248.28C835.367 248.84 835.62 249.54 835.62 250.38C835.62 251.127 835.407 251.793 834.98 252.38C834.567 252.953 833.98 253.4 833.22 253.72C832.46 254.04 831.567 254.2 830.54 254.2C829.58 254.2 828.733 254.073 828 253.82C827.28 253.553 826.66 253.2 826.14 252.76C825.62 252.32 825.193 251.827 824.86 251.28L826.26 250.14C826.513 250.647 826.84 251.093 827.24 251.48C827.64 251.867 828.12 252.167 828.68 252.38C829.253 252.593 829.907 252.7 830.64 252.7C831.32 252.7 831.907 252.62 832.4 252.46C832.907 252.287 833.293 252.04 833.56 251.72C833.827 251.387 833.96 250.987 833.96 250.52C833.96 250.093 833.82 249.713 833.54 249.38C833.26 249.033 832.733 248.773 831.96 248.6L828.86 247.9C828.047 247.713 827.387 247.46 826.88 247.14C826.387 246.807 826.027 246.42 825.8 245.98C825.587 245.527 825.48 245.04 825.48 244.52C825.48 243.813 825.673 243.167 826.06 242.58C826.46 241.98 827.027 241.5 827.76 241.14C828.507 240.78 829.387 240.6 830.4 240.6ZM844.317 247.54C844.317 246.793 844.117 246.22 843.717 245.82C843.317 245.407 842.751 245.2 842.017 245.2C841.324 245.2 840.737 245.353 840.257 245.66C839.777 245.953 839.424 246.433 839.197 247.1L837.897 246.3C838.164 245.553 838.657 244.953 839.377 244.5C840.097 244.033 840.991 243.8 842.057 243.8C842.777 243.8 843.431 243.927 844.017 244.18C844.604 244.42 845.064 244.793 845.397 245.3C845.744 245.793 845.917 246.433 845.917 247.22V252.06C845.917 252.54 846.171 252.78 846.677 252.78C846.931 252.78 847.177 252.747 847.417 252.68L847.337 253.94C847.071 254.073 846.724 254.14 846.297 254.14C845.911 254.14 845.564 254.067 845.257 253.92C844.951 253.773 844.711 253.553 844.537 253.26C844.364 252.953 844.277 252.573 844.277 252.12V251.92L844.677 251.98C844.517 252.5 844.244 252.927 843.857 253.26C843.471 253.58 843.037 253.82 842.557 253.98C842.077 254.127 841.604 254.2 841.137 254.2C840.551 254.2 840.004 254.1 839.497 253.9C838.991 253.7 838.584 253.4 838.277 253C837.984 252.587 837.837 252.08 837.837 251.48C837.837 250.733 838.084 250.12 838.577 249.64C839.084 249.147 839.784 248.813 840.677 248.64L844.637 247.86V249.18L841.417 249.84C840.764 249.973 840.277 250.16 839.957 250.4C839.637 250.64 839.477 250.973 839.477 251.4C839.477 251.813 839.637 252.153 839.957 252.42C840.291 252.673 840.757 252.8 841.357 252.8C841.744 252.8 842.111 252.753 842.457 252.66C842.817 252.553 843.137 252.4 843.417 252.2C843.697 251.987 843.917 251.727 844.077 251.42C844.237 251.1 844.317 250.727 844.317 250.3V247.54ZM851.775 241.16V251.24C851.775 251.733 851.915 252.1 852.195 252.34C852.475 252.58 852.835 252.7 853.275 252.7C853.661 252.7 853.995 252.633 854.275 252.5C854.555 252.367 854.808 252.187 855.035 251.96L855.595 253.3C855.288 253.58 854.921 253.8 854.495 253.96C854.081 254.12 853.601 254.2 853.055 254.2C852.548 254.2 852.075 254.113 851.635 253.94C851.195 253.753 850.841 253.467 850.575 253.08C850.321 252.68 850.188 252.16 850.175 251.52V241.6L851.775 241.16ZM855.415 244V245.38H848.175V244H855.415Z" fill="black"/>
<rect x="802" y="204" width="83" height="20" rx="4" fill="#101036"/>
<path d="M845.22 193.2C843.727 193.2 842.533 192.62 841.64 191.46C840.747 190.3 840.3 188.613 840.3 186.4C840.3 184.187 840.747 182.5 841.64 181.34C842.533 180.18 843.727 179.6 845.22 179.6C846.727 179.6 847.92 180.18 848.8 181.34C849.693 182.5 850.14 184.187 850.14 186.4C850.14 188.613 849.693 190.3 848.8 191.46C847.92 192.62 846.727 193.2 845.22 193.2ZM845.22 191.76C845.927 191.76 846.52 191.56 847 191.16C847.493 190.747 847.86 190.14 848.1 189.34C848.353 188.54 848.48 187.56 848.48 186.4C848.48 185.24 848.353 184.26 848.1 183.46C847.86 182.66 847.493 182.06 847 181.66C846.52 181.247 845.927 181.04 845.22 181.04C844.513 181.04 843.913 181.247 843.42 181.66C842.94 182.06 842.573 182.66 842.32 183.46C842.08 184.26 841.96 185.24 841.96 186.4C841.96 187.56 842.08 188.54 842.32 189.34C842.573 190.14 842.94 190.747 843.42 191.16C843.913 191.56 844.513 191.76 845.22 191.76Z" fill="black"/>
</svg>
