<svg width="665" height="290" viewBox="0 0 665 290" fill="none" xmlns="http://www.w3.org/2000/svg">
<path d="M28.4 275.6C29.56 275.6 30.56 275.84 31.4 276.32C32.24 276.787 32.94 277.48 33.5 278.4L32.16 279.44C31.6667 278.587 31.1067 277.987 30.48 277.64C29.8667 277.28 29.12 277.1 28.24 277.1C27.5333 277.1 26.9467 277.2 26.48 277.4C26.0267 277.6 25.6933 277.867 25.48 278.2C25.2667 278.52 25.16 278.887 25.16 279.3C25.16 279.767 25.3067 280.18 25.6 280.54C25.8933 280.887 26.48 281.16 27.36 281.36L30.22 282C31.4867 282.28 32.3667 282.707 32.86 283.28C33.3667 283.84 33.62 284.54 33.62 285.38C33.62 286.127 33.4067 286.793 32.98 287.38C32.5667 287.953 31.98 288.4 31.22 288.72C30.46 289.04 29.5667 289.2 28.54 289.2C27.58 289.2 26.7333 289.073 26 288.82C25.28 288.553 24.66 288.2 24.14 287.76C23.62 287.32 23.1933 286.827 22.86 286.28L24.26 285.14C24.5133 285.647 24.84 286.093 25.24 286.48C25.64 286.867 26.12 287.167 26.68 287.38C27.2533 287.593 27.9067 287.7 28.64 287.7C29.32 287.7 29.9067 287.62 30.4 287.46C30.9067 287.287 31.2933 287.04 31.56 286.72C31.8267 286.387 31.96 285.987 31.96 285.52C31.96 285.093 31.82 284.713 31.54 284.38C31.26 284.033 30.7333 283.773 29.96 283.6L26.86 282.9C26.0467 282.713 25.3867 282.46 24.88 282.14C24.3867 281.807 24.0267 281.42 23.8 280.98C23.5867 280.527 23.48 280.04 23.48 279.52C23.48 278.813 23.6733 278.167 24.06 277.58C24.46 276.98 25.0267 276.5 25.76 276.14C26.5067 275.78 27.3867 275.6 28.4 275.6ZM40.1948 289.2C39.5548 289.2 38.9482 289.08 38.3748 288.84C37.8148 288.6 37.3548 288.213 36.9948 287.68C36.6482 287.133 36.4748 286.427 36.4748 285.56V279H38.0748V285.14C38.0748 286.153 38.2948 286.853 38.7348 287.24C39.1748 287.613 39.7948 287.8 40.5948 287.8C40.9682 287.8 41.3348 287.74 41.6948 287.62C42.0548 287.487 42.3748 287.287 42.6548 287.02C42.9482 286.74 43.1748 286.387 43.3348 285.96C43.5082 285.533 43.5948 285.027 43.5948 284.44V279H45.1948V289H43.7948L43.6948 287.48C43.3482 288.08 42.8748 288.52 42.2748 288.8C41.6882 289.067 40.9948 289.2 40.1948 289.2ZM48.9186 289V279H50.3186L50.4586 281.24L50.1986 281.02C50.4119 280.487 50.6986 280.06 51.0586 279.74C51.4186 279.407 51.8319 279.167 52.2986 279.02C52.7786 278.873 53.2719 278.8 53.7786 278.8C54.4986 278.8 55.1519 278.94 55.7386 279.22C56.3253 279.487 56.7919 279.9 57.1386 280.46C57.4986 281.02 57.6786 281.733 57.6786 282.6V289H56.0786V283.16C56.0786 282.053 55.8386 281.287 55.3586 280.86C54.8919 280.42 54.3119 280.2 53.6186 280.2C53.1386 280.2 52.6586 280.313 52.1786 280.54C51.6986 280.767 51.2986 281.133 50.9786 281.64C50.6719 282.147 50.5186 282.827 50.5186 283.68V289H48.9186Z" fill="black"/>
<rect y="84" width="83" height="175" rx="4" fill="#101036"/>
<path d="M133.92 275.8V289H132.4V280.7L132.58 277.22H132.56L128.22 289H126.86L122.52 277.22H122.5L122.68 280.7V289H121.16V275.8H123.62L126.52 283.82L127.52 287.12H127.56L128.58 283.84L131.46 275.8H133.92ZM141.914 278.8C142.861 278.8 143.694 279.007 144.414 279.42C145.147 279.833 145.721 280.433 146.134 281.22C146.547 281.993 146.754 282.92 146.754 284C146.754 285.08 146.547 286.013 146.134 286.8C145.721 287.573 145.147 288.167 144.414 288.58C143.694 288.993 142.861 289.2 141.914 289.2C140.981 289.2 140.147 288.993 139.414 288.58C138.681 288.167 138.107 287.573 137.694 286.8C137.281 286.013 137.074 285.08 137.074 284C137.074 282.92 137.281 281.993 137.694 281.22C138.107 280.433 138.681 279.833 139.414 279.42C140.147 279.007 140.981 278.8 141.914 278.8ZM141.914 280.18C141.234 280.18 140.654 280.333 140.174 280.64C139.694 280.947 139.321 281.387 139.054 281.96C138.801 282.52 138.674 283.2 138.674 284C138.674 284.787 138.801 285.467 139.054 286.04C139.321 286.613 139.694 287.053 140.174 287.36C140.654 287.667 141.234 287.82 141.914 287.82C142.594 287.82 143.174 287.667 143.654 287.36C144.134 287.053 144.501 286.613 144.754 286.04C145.021 285.467 145.154 284.787 145.154 284C145.154 283.2 145.021 282.52 144.754 281.96C144.501 281.387 144.134 280.947 143.654 280.64C143.174 280.333 142.594 280.18 141.914 280.18ZM149.766 289V279H151.166L151.306 281.24L151.046 281.02C151.26 280.487 151.546 280.06 151.906 279.74C152.266 279.407 152.68 279.167 153.146 279.02C153.626 278.873 154.12 278.8 154.626 278.8C155.346 278.8 156 278.94 156.586 279.22C157.173 279.487 157.64 279.9 157.986 280.46C158.346 281.02 158.526 281.733 158.526 282.6V289H156.926V283.16C156.926 282.053 156.686 281.287 156.206 280.86C155.74 280.42 155.16 280.2 154.466 280.2C153.986 280.2 153.506 280.313 153.026 280.54C152.546 280.767 152.146 281.133 151.826 281.64C151.52 282.147 151.366 282.827 151.366 283.68V289H149.766Z" fill="black"/>
<rect x="97" y="138" width="83" height="121" rx="4" fill="#101036"/>
<path d="M227.44 275.8V277.3H222.84V289H221.24V277.3H216.64V275.8H227.44ZM232.242 289.2C231.602 289.2 230.995 289.08 230.422 288.84C229.862 288.6 229.402 288.213 229.042 287.68C228.695 287.133 228.522 286.427 228.522 285.56V279H230.122V285.14C230.122 286.153 230.342 286.853 230.782 287.24C231.222 287.613 231.842 287.8 232.642 287.8C233.015 287.8 233.382 287.74 233.742 287.62C234.102 287.487 234.422 287.287 234.702 287.02C234.995 286.74 235.222 286.387 235.382 285.96C235.555 285.533 235.642 285.027 235.642 284.44V279H237.242V289H235.842L235.742 287.48C235.395 288.08 234.922 288.52 234.322 288.8C233.735 289.067 233.042 289.2 232.242 289.2ZM245.145 289.2C244.199 289.2 243.352 288.993 242.605 288.58C241.872 288.167 241.299 287.573 240.885 286.8C240.472 286.013 240.265 285.08 240.265 284C240.265 282.92 240.472 281.993 240.885 281.22C241.299 280.433 241.865 279.833 242.585 279.42C243.305 279.007 244.125 278.8 245.045 278.8C245.979 278.8 246.772 279 247.425 279.4C248.092 279.8 248.599 280.347 248.945 281.04C249.292 281.72 249.465 282.487 249.465 283.34C249.465 283.567 249.459 283.773 249.445 283.96C249.432 284.147 249.412 284.313 249.385 284.46H241.305V283.04H248.685L247.865 283.2C247.865 282.24 247.599 281.5 247.065 280.98C246.545 280.46 245.859 280.2 245.005 280.2C244.352 280.2 243.785 280.353 243.305 280.66C242.839 280.953 242.472 281.387 242.205 281.96C241.952 282.52 241.825 283.2 241.825 284C241.825 284.787 241.959 285.467 242.225 286.04C242.492 286.613 242.865 287.053 243.345 287.36C243.839 287.653 244.425 287.8 245.105 287.8C245.839 287.8 246.432 287.66 246.885 287.38C247.352 287.1 247.725 286.72 248.005 286.24L249.265 286.98C249.012 287.433 248.685 287.827 248.285 288.16C247.899 288.493 247.439 288.753 246.905 288.94C246.385 289.113 245.799 289.2 245.145 289.2Z" fill="black"/>
<rect x="194" y="196" width="83" height="63" rx="4" fill="#101036"/>
<path d="M317.62 289L313.72 275.8H315.38L318.64 287.54L321.74 275.8H323.56L326.66 287.58L329.92 275.8H331.5L327.62 289H325.64L323.3 280.44L322.62 277.46H322.6L321.92 280.44L319.6 289H317.62ZM337.575 289.2C336.628 289.2 335.782 288.993 335.035 288.58C334.302 288.167 333.728 287.573 333.315 286.8C332.902 286.013 332.695 285.08 332.695 284C332.695 282.92 332.902 281.993 333.315 281.22C333.728 280.433 334.295 279.833 335.015 279.42C335.735 279.007 336.555 278.8 337.475 278.8C338.408 278.8 339.202 279 339.855 279.4C340.522 279.8 341.028 280.347 341.375 281.04C341.722 281.72 341.895 282.487 341.895 283.34C341.895 283.567 341.888 283.773 341.875 283.96C341.862 284.147 341.842 284.313 341.815 284.46H333.735V283.04H341.115L340.295 283.2C340.295 282.24 340.028 281.5 339.495 280.98C338.975 280.46 338.288 280.2 337.435 280.2C336.782 280.2 336.215 280.353 335.735 280.66C335.268 280.953 334.902 281.387 334.635 281.96C334.382 282.52 334.255 283.2 334.255 284C334.255 284.787 334.388 285.467 334.655 286.04C334.922 286.613 335.295 287.053 335.775 287.36C336.268 287.653 336.855 287.8 337.535 287.8C338.268 287.8 338.862 287.66 339.315 287.38C339.782 287.1 340.155 286.72 340.435 286.24L341.695 286.98C341.442 287.433 341.115 287.827 340.715 288.16C340.328 288.493 339.868 288.753 339.335 288.94C338.815 289.113 338.228 289.2 337.575 289.2ZM348.838 289.2C348.011 289.2 347.251 288.993 346.558 288.58C345.865 288.167 345.311 287.573 344.898 286.8C344.485 286.013 344.278 285.08 344.278 284C344.278 282.893 344.498 281.953 344.938 281.18C345.378 280.407 345.958 279.82 346.678 279.42C347.398 279.007 348.171 278.8 348.998 278.8C349.825 278.8 350.538 279.013 351.138 279.44C351.751 279.867 352.158 280.433 352.358 281.14L352.158 281.28V274.4H353.758V289H352.358L352.218 286.58L352.438 286.46C352.345 287.047 352.118 287.547 351.758 287.96C351.411 288.36 350.978 288.667 350.458 288.88C349.951 289.093 349.411 289.2 348.838 289.2ZM348.998 287.8C349.638 287.8 350.191 287.64 350.658 287.32C351.138 287 351.505 286.547 351.758 285.96C352.025 285.36 352.158 284.66 352.158 283.86C352.158 283.1 352.025 282.447 351.758 281.9C351.505 281.353 351.145 280.933 350.678 280.64C350.225 280.347 349.691 280.2 349.078 280.2C348.065 280.2 347.278 280.547 346.718 281.24C346.158 281.933 345.878 282.853 345.878 284C345.878 285.147 346.151 286.067 346.698 286.76C347.245 287.453 348.011 287.8 348.998 287.8Z" fill="black"/>
<rect x="291" y="24" width="83" height="235" rx="4" fill="#101036"/>
<path d="M421.44 275.8V277.3H416.84V289H415.24V277.3H410.64V275.8H421.44ZM423.54 289V274.4H425.14V280.5C425.486 279.9 425.946 279.467 426.52 279.2C427.093 278.933 427.72 278.8 428.4 278.8C429.12 278.8 429.773 278.94 430.36 279.22C430.946 279.487 431.413 279.9 431.76 280.46C432.12 281.02 432.3 281.733 432.3 282.6V289H430.7V283.16C430.7 282.053 430.46 281.287 429.98 280.86C429.513 280.42 428.933 280.2 428.24 280.2C427.76 280.2 427.28 280.313 426.8 280.54C426.32 280.767 425.92 281.14 425.6 281.66C425.293 282.167 425.14 282.847 425.14 283.7V289H423.54ZM439.543 289.2C438.903 289.2 438.296 289.08 437.723 288.84C437.163 288.6 436.703 288.213 436.343 287.68C435.996 287.133 435.823 286.427 435.823 285.56V279H437.423V285.14C437.423 286.153 437.643 286.853 438.083 287.24C438.523 287.613 439.143 287.8 439.942 287.8C440.316 287.8 440.683 287.74 441.043 287.62C441.403 287.487 441.723 287.287 442.003 287.02C442.296 286.74 442.523 286.387 442.683 285.96C442.856 285.533 442.943 285.027 442.943 284.44V279H444.543V289H443.143L443.043 287.48C442.696 288.08 442.223 288.52 441.623 288.8C441.036 289.067 440.343 289.2 439.543 289.2Z" fill="black"/>
<rect x="388" y="239" width="83" height="20" rx="4" fill="#101036"/>
<path d="M518.4 277.3H510.76V281.56H516.72V283.06H510.76V289H509.16V275.8H518.4V277.3ZM520.247 289V279H521.547L521.767 280.64C522.047 280.027 522.453 279.567 522.987 279.26C523.533 278.953 524.193 278.8 524.967 278.8C525.14 278.8 525.327 278.813 525.527 278.84C525.74 278.867 525.92 278.92 526.067 279L525.787 280.46C525.64 280.407 525.48 280.367 525.307 280.34C525.133 280.313 524.887 280.3 524.567 280.3C524.153 280.3 523.733 280.42 523.307 280.66C522.893 280.9 522.547 281.267 522.267 281.76C521.987 282.24 521.847 282.853 521.847 283.6V289H520.247ZM529.211 277.08C528.851 277.08 528.557 276.973 528.331 276.76C528.117 276.533 528.011 276.24 528.011 275.88C528.011 275.52 528.117 275.233 528.331 275.02C528.557 274.793 528.851 274.68 529.211 274.68C529.571 274.68 529.857 274.793 530.071 275.02C530.297 275.233 530.411 275.52 530.411 275.88C530.411 276.24 530.297 276.533 530.071 276.76C529.857 276.973 529.571 277.08 529.211 277.08ZM530.011 279V289H528.411V279H530.011Z" fill="black"/>
<rect x="485" y="239" width="83" height="20" rx="4" fill="#101036"/>
<path d="M610.4 275.6C611.56 275.6 612.56 275.84 613.4 276.32C614.24 276.787 614.94 277.48 615.5 278.4L614.16 279.44C613.667 278.587 613.107 277.987 612.48 277.64C611.867 277.28 611.12 277.1 610.24 277.1C609.533 277.1 608.947 277.2 608.48 277.4C608.027 277.6 607.693 277.867 607.48 278.2C607.267 278.52 607.16 278.887 607.16 279.3C607.16 279.767 607.307 280.18 607.6 280.54C607.893 280.887 608.48 281.16 609.36 281.36L612.22 282C613.487 282.28 614.367 282.707 614.86 283.28C615.367 283.84 615.62 284.54 615.62 285.38C615.62 286.127 615.407 286.793 614.98 287.38C614.567 287.953 613.98 288.4 613.22 288.72C612.46 289.04 611.567 289.2 610.54 289.2C609.58 289.2 608.733 289.073 608 288.82C607.28 288.553 606.66 288.2 606.14 287.76C605.62 287.32 605.193 286.827 604.86 286.28L606.26 285.14C606.513 285.647 606.84 286.093 607.24 286.48C607.64 286.867 608.12 287.167 608.68 287.38C609.253 287.593 609.907 287.7 610.64 287.7C611.32 287.7 611.907 287.62 612.4 287.46C612.907 287.287 613.293 287.04 613.56 286.72C613.827 286.387 613.96 285.987 613.96 285.52C613.96 285.093 613.82 284.713 613.54 284.38C613.26 284.033 612.733 283.773 611.96 283.6L608.86 282.9C608.047 282.713 607.387 282.46 606.88 282.14C606.387 281.807 606.027 281.42 605.8 280.98C605.587 280.527 605.48 280.04 605.48 279.52C605.48 278.813 605.673 278.167 606.06 277.58C606.46 276.98 607.027 276.5 607.76 276.14C608.507 275.78 609.387 275.6 610.4 275.6ZM624.317 282.54C624.317 281.793 624.117 281.22 623.717 280.82C623.317 280.407 622.751 280.2 622.017 280.2C621.324 280.2 620.737 280.353 620.257 280.66C619.777 280.953 619.424 281.433 619.197 282.1L617.897 281.3C618.164 280.553 618.657 279.953 619.377 279.5C620.097 279.033 620.991 278.8 622.057 278.8C622.777 278.8 623.431 278.927 624.017 279.18C624.604 279.42 625.064 279.793 625.397 280.3C625.744 280.793 625.917 281.433 625.917 282.22V287.06C625.917 287.54 626.171 287.78 626.677 287.78C626.931 287.78 627.177 287.747 627.417 287.68L627.337 288.94C627.071 289.073 626.724 289.14 626.297 289.14C625.911 289.14 625.564 289.067 625.257 288.92C624.951 288.773 624.711 288.553 624.537 288.26C624.364 287.953 624.277 287.573 624.277 287.12V286.92L624.677 286.98C624.517 287.5 624.244 287.927 623.857 288.26C623.471 288.58 623.037 288.82 622.557 288.98C622.077 289.127 621.604 289.2 621.137 289.2C620.551 289.2 620.004 289.1 619.497 288.9C618.991 288.7 618.584 288.4 618.277 288C617.984 287.587 617.837 287.08 617.837 286.48C617.837 285.733 618.084 285.12 618.577 284.64C619.084 284.147 619.784 283.813 620.677 283.64L624.637 282.86V284.18L621.417 284.84C620.764 284.973 620.277 285.16 619.957 285.4C619.637 285.64 619.477 285.973 619.477 286.4C619.477 286.813 619.637 287.153 619.957 287.42C620.291 287.673 620.757 287.8 621.357 287.8C621.744 287.8 622.111 287.753 622.457 287.66C622.817 287.553 623.137 287.4 623.417 287.2C623.697 286.987 623.917 286.727 624.077 286.42C624.237 286.1 624.317 285.727 624.317 285.3V282.54ZM631.775 276.16V286.24C631.775 286.733 631.915 287.1 632.195 287.34C632.475 287.58 632.835 287.7 633.275 287.7C633.661 287.7 633.995 287.633 634.275 287.5C634.555 287.367 634.808 287.187 635.035 286.96L635.595 288.3C635.288 288.58 634.921 288.8 634.495 288.96C634.081 289.12 633.601 289.2 633.055 289.2C632.548 289.2 632.075 289.113 631.635 288.94C631.195 288.753 630.841 288.467 630.575 288.08C630.321 287.68 630.188 287.16 630.175 286.52V276.6L631.775 276.16ZM635.415 279V280.38H628.175V279H635.415Z" fill="black"/>
<rect x="582" y="239" width="83" height="20" rx="4" fill="#101036"/>
<path d="M137.8 125.2C136.627 125.2 135.587 124.927 134.68 124.38C133.787 123.82 133.18 123.053 132.86 122.08L134.46 121.26C134.62 121.753 134.84 122.187 135.12 122.56C135.4 122.92 135.767 123.2 136.22 123.4C136.687 123.6 137.267 123.7 137.96 123.7C138.547 123.7 139.04 123.593 139.44 123.38C139.84 123.167 140.147 122.88 140.36 122.52C140.573 122.147 140.68 121.72 140.68 121.24C140.68 120.76 140.587 120.36 140.4 120.04C140.227 119.72 139.947 119.487 139.56 119.34C139.173 119.18 138.667 119.1 138.04 119.1C137.893 119.1 137.733 119.107 137.56 119.12C137.387 119.12 137.207 119.133 137.02 119.16V117.56C137.14 117.573 137.253 117.58 137.36 117.58C137.48 117.58 137.587 117.58 137.68 117.58C138.653 117.58 139.347 117.393 139.76 117.02C140.173 116.633 140.38 116.033 140.38 115.22C140.38 114.527 140.167 114 139.74 113.64C139.313 113.28 138.707 113.1 137.92 113.1C137.08 113.1 136.44 113.287 136 113.66C135.56 114.02 135.213 114.513 134.96 115.14L133.44 114.42C133.653 113.86 133.973 113.367 134.4 112.94C134.827 112.513 135.34 112.18 135.94 111.94C136.553 111.7 137.227 111.58 137.96 111.58C138.88 111.58 139.64 111.74 140.24 112.06C140.84 112.367 141.287 112.78 141.58 113.3C141.887 113.82 142.04 114.393 142.04 115.02C142.04 115.5 141.973 115.933 141.84 116.32C141.707 116.693 141.52 117.02 141.28 117.3C141.053 117.58 140.793 117.807 140.5 117.98C140.207 118.14 139.893 118.247 139.56 118.3V118.34C140 118.353 140.387 118.44 140.72 118.6C141.067 118.76 141.36 118.973 141.6 119.24C141.84 119.507 142.02 119.813 142.14 120.16C142.273 120.493 142.34 120.847 142.34 121.22C142.34 121.993 142.147 122.68 141.76 123.28C141.387 123.88 140.86 124.353 140.18 124.7C139.5 125.033 138.707 125.2 137.8 125.2Z" fill="black"/>
<path d="M230.48 186V184.7C231.8 183.727 232.9 182.873 233.78 182.14C234.673 181.407 235.387 180.74 235.92 180.14C236.453 179.54 236.833 178.973 237.06 178.44C237.287 177.893 237.4 177.327 237.4 176.74C237.4 175.953 237.147 175.32 236.64 174.84C236.147 174.347 235.467 174.1 234.6 174.1C233.693 174.1 232.967 174.4 232.42 175C231.873 175.587 231.553 176.373 231.46 177.36L230.06 176.52C230.18 175.747 230.427 175.067 230.8 174.48C231.187 173.893 231.7 173.433 232.34 173.1C232.993 172.767 233.767 172.6 234.66 172.6C235.34 172.6 235.947 172.7 236.48 172.9C237.027 173.1 237.493 173.387 237.88 173.76C238.267 174.12 238.56 174.553 238.76 175.06C238.973 175.567 239.08 176.127 239.08 176.74C239.08 177.567 238.88 178.38 238.48 179.18C238.08 179.967 237.42 180.793 236.5 181.66C235.58 182.527 234.333 183.487 232.76 184.54V184.56C232.907 184.547 233.107 184.54 233.36 184.54C233.627 184.527 233.887 184.52 234.14 184.52C234.407 184.507 234.607 184.5 234.74 184.5H239.36V186H230.48Z" fill="black"/>
<path d="M429.22 228.2C427.727 228.2 426.533 227.62 425.64 226.46C424.747 225.3 424.3 223.613 424.3 221.4C424.3 219.187 424.747 217.5 425.64 216.34C426.533 215.18 427.727 214.6 429.22 214.6C430.727 214.6 431.92 215.18 432.8 216.34C433.693 217.5 434.14 219.187 434.14 221.4C434.14 223.613 433.693 225.3 432.8 226.46C431.92 227.62 430.727 228.2 429.22 228.2ZM429.22 226.76C429.927 226.76 430.52 226.56 431 226.16C431.493 225.747 431.86 225.14 432.1 224.34C432.353 223.54 432.48 222.56 432.48 221.4C432.48 220.24 432.353 219.26 432.1 218.46C431.86 217.66 431.493 217.06 431 216.66C430.52 216.247 429.927 216.04 429.22 216.04C428.513 216.04 427.913 216.247 427.42 216.66C426.94 217.06 426.573 217.66 426.32 218.46C426.08 219.26 425.96 220.24 425.96 221.4C425.96 222.56 426.08 223.54 426.32 224.34C426.573 225.14 426.94 225.747 427.42 226.16C427.913 226.56 428.513 226.76 429.22 226.76Z" fill="black"/>
<path d="M527.22 228.2C525.727 228.2 524.533 227.62 523.64 226.46C522.747 225.3 522.3 223.613 522.3 221.4C522.3 219.187 522.747 217.5 523.64 216.34C524.533 215.18 525.727 214.6 527.22 214.6C528.727 214.6 529.92 215.18 530.8 216.34C531.693 217.5 532.14 219.187 532.14 221.4C532.14 223.613 531.693 225.3 530.8 226.46C529.92 227.62 528.727 228.2 527.22 228.2ZM527.22 226.76C527.927 226.76 528.52 226.56 529 226.16C529.493 225.747 529.86 225.14 530.1 224.34C530.353 223.54 530.48 222.56 530.48 221.4C530.48 220.24 530.353 219.26 530.1 218.46C529.86 217.66 529.493 217.06 529 216.66C528.52 216.247 527.927 216.04 527.22 216.04C526.513 216.04 525.913 216.247 525.42 216.66C524.94 217.06 524.573 217.66 524.32 218.46C524.08 219.26 523.96 220.24 523.96 221.4C523.96 222.56 524.08 223.54 524.32 224.34C524.573 225.14 524.94 225.747 525.42 226.16C525.913 226.56 526.513 226.76 527.22 226.76Z" fill="black"/>
<path d="M625.22 228.2C623.727 228.2 622.533 227.62 621.64 226.46C620.747 225.3 620.3 223.613 620.3 221.4C620.3 219.187 620.747 217.5 621.64 216.34C622.533 215.18 623.727 214.6 625.22 214.6C626.727 214.6 627.92 215.18 628.8 216.34C629.693 217.5 630.14 219.187 630.14 221.4C630.14 223.613 629.693 225.3 628.8 226.46C627.92 227.62 626.727 228.2 625.22 228.2ZM625.22 226.76C625.927 226.76 626.52 226.56 627 226.16C627.493 225.747 627.86 225.14 628.1 224.34C628.353 223.54 628.48 222.56 628.48 221.4C628.48 220.24 628.353 219.26 628.1 218.46C627.86 217.66 627.493 217.06 627 216.66C626.52 216.247 625.927 216.04 625.22 216.04C624.513 216.04 623.913 216.247 623.42 216.66C622.94 217.06 622.573 217.66 622.32 218.46C622.08 219.26 621.96 220.24 621.96 221.4C621.96 222.56 622.08 223.54 622.32 224.34C622.573 225.14 622.94 225.747 623.42 226.16C623.913 226.56 624.513 226.76 625.22 226.76Z" fill="black"/>
<path d="M40.74 71.2C39.5667 71.2 38.62 70.9333 37.9 70.4C37.1933 69.8667 36.6467 69.1267 36.26 68.18L37.82 67.36C38.0333 68.0533 38.36 68.62 38.8 69.06C39.2533 69.4867 39.9133 69.7 40.78 69.7C41.3933 69.7 41.9133 69.5867 42.34 69.36C42.78 69.1333 43.12 68.8133 43.36 68.4C43.6 67.9733 43.72 67.4667 43.72 66.88C43.72 66.2533 43.6067 65.7333 43.38 65.32C43.1667 64.8933 42.8533 64.5733 42.44 64.36C42.0267 64.1467 41.52 64.04 40.92 64.04C40.4933 64.04 40.0933 64.0867 39.72 64.18C39.36 64.26 39.0333 64.3933 38.74 64.58C38.4467 64.7667 38.1933 65.0133 37.98 65.32L36.58 65.06L37.36 57.8H44.78V59.3H38.72L38.2 63.46L38.16 63.64H38.2C38.52 63.3067 38.9267 63.04 39.42 62.84C39.9267 62.64 40.5267 62.54 41.22 62.54C42.06 62.54 42.7867 62.72 43.4 63.08C44.0267 63.4267 44.5133 63.92 44.86 64.56C45.2067 65.2 45.38 65.9467 45.38 66.8C45.38 67.48 45.2667 68.0933 45.04 68.64C44.8133 69.1867 44.4933 69.6533 44.08 70.04C43.6667 70.4133 43.1733 70.7 42.6 70.9C42.04 71.1 41.42 71.2 40.74 71.2Z" fill="black"/>
<path d="M325.16 14V4.32C325.16 4.09333 325.16 3.85333 325.16 3.6C325.173 3.33333 325.187 3.06 325.2 2.78C324.747 3.22 324.22 3.60667 323.62 3.94C323.02 4.26 322.407 4.49333 321.78 4.64L321.36 3.18C321.6 3.15333 321.9 3.06667 322.26 2.92C322.633 2.76 323.02 2.56667 323.42 2.34C323.833 2.1 324.213 1.84667 324.56 1.58C324.907 1.31333 325.173 1.05333 325.36 0.799999H326.76V14H325.16ZM335.013 14.2C333.52 14.2 332.326 13.62 331.433 12.46C330.54 11.3 330.093 9.61333 330.093 7.4C330.093 5.18667 330.54 3.5 331.433 2.34C332.326 1.18 333.52 0.6 335.013 0.6C336.52 0.6 337.713 1.18 338.593 2.34C339.486 3.5 339.933 5.18667 339.933 7.4C339.933 9.61333 339.486 11.3 338.593 12.46C337.713 13.62 336.52 14.2 335.013 14.2ZM335.013 12.76C335.72 12.76 336.313 12.56 336.793 12.16C337.286 11.7467 337.653 11.14 337.893 10.34C338.146 9.54 338.273 8.56 338.273 7.4C338.273 6.24 338.146 5.26 337.893 4.46C337.653 3.66 337.286 3.06 336.793 2.66C336.313 2.24667 335.72 2.04 335.013 2.04C334.306 2.04 333.706 2.24667 333.213 2.66C332.733 3.06 332.366 3.66 332.113 4.46C331.873 5.26 331.753 6.24 331.753 7.4C331.753 8.56 331.873 9.54 332.113 10.34C332.366 11.14 332.733 11.7467 333.213 12.16C333.706 12.56 334.306 12.76 335.013 12.76Z" fill="black"/>
</svg>
