<svg width="200" height="54" viewBox="0 0 200 54" fill="none" xmlns="http://www.w3.org/2000/svg">
<path d="M41 30V34C41 34.5304 40.7893 35.0391 40.4142 35.4142C40.0391 35.7893 39.5304 36 39 36H25C24.4696 36 23.9609 35.7893 23.5858 35.4142C23.2107 35.0391 23 34.5304 23 34V30" stroke="#6000DA" stroke-width="2" stroke-linecap="round" stroke-linejoin="round"/>
<path d="M27 25L32 30L37 25" stroke="#6000DA" stroke-width="2" stroke-linecap="round" stroke-linejoin="round"/>
<path d="M32 30V18" stroke="#6000DA" stroke-width="2" stroke-linecap="round" stroke-linejoin="round"/>
<path d="M53.4134 32V20.8H60.7734V22.544H55.5734V25.472H60.2934V27.152H55.5734V30.256H60.7734V32H53.4134ZM62.1415 32L65.0375 27.968L62.1415 23.936H64.4775L66.4135 26.704L68.3495 23.936H70.6695L67.7735 27.968L70.6695 32H68.3495L66.4135 29.216L64.4775 32H62.1415ZM72.2341 35.52V23.936H74.1541L74.3941 25.056C74.5648 24.8213 74.7675 24.608 75.0021 24.416C75.2368 24.2133 75.5141 24.0533 75.8341 23.936C76.1648 23.808 76.5488 23.744 76.9861 23.744C77.7435 23.744 78.4101 23.9307 78.9861 24.304C79.5621 24.6773 80.0155 25.184 80.3461 25.824C80.6875 26.4533 80.8581 27.1733 80.8581 27.984C80.8581 28.7947 80.6875 29.52 80.3461 30.16C80.0048 30.7893 79.5461 31.2853 78.9701 31.648C78.3941 32.0107 77.7381 32.192 77.0021 32.192C76.4048 32.192 75.8875 32.0853 75.4501 31.872C75.0235 31.648 74.6715 31.344 74.3941 30.96V35.52H72.2341ZM76.4901 30.304C76.9168 30.304 77.2901 30.208 77.6101 30.016C77.9408 29.824 78.1968 29.552 78.3781 29.2C78.5595 28.848 78.6501 28.4427 78.6501 27.984C78.6501 27.5253 78.5595 27.12 78.3781 26.768C78.1968 26.4053 77.9408 26.128 77.6101 25.936C77.2901 25.7333 76.9168 25.632 76.4901 25.632C76.0741 25.632 75.7008 25.7333 75.3701 25.936C75.0501 26.128 74.7941 26.4 74.6021 26.752C74.4208 27.104 74.3301 27.5093 74.3301 27.968C74.3301 28.4267 74.4208 28.8373 74.6021 29.2C74.7941 29.552 75.0501 29.824 75.3701 30.016C75.7008 30.208 76.0741 30.304 76.4901 30.304ZM86.7265 32.192C85.9585 32.192 85.2652 32.016 84.6465 31.664C84.0385 31.3013 83.5532 30.8053 83.1905 30.176C82.8385 29.536 82.6625 28.8053 82.6625 27.984C82.6625 27.1413 82.8385 26.4053 83.1905 25.776C83.5532 25.136 84.0438 24.64 84.6625 24.288C85.2812 23.9253 85.9745 23.744 86.7425 23.744C87.5212 23.744 88.2145 23.9253 88.8225 24.288C89.4412 24.64 89.9265 25.136 90.2785 25.776C90.6412 26.4053 90.8225 27.136 90.8225 27.968C90.8225 28.8 90.6412 29.536 90.2785 30.176C89.9265 30.8053 89.4412 31.3013 88.8225 31.664C88.2038 32.016 87.5052 32.192 86.7265 32.192ZM86.7265 30.32C87.0892 30.32 87.4092 30.2347 87.6865 30.064C87.9745 29.8933 88.1985 29.632 88.3585 29.28C88.5292 28.928 88.6145 28.4907 88.6145 27.968C88.6145 27.4453 88.5292 27.0133 88.3585 26.672C88.1985 26.32 87.9745 26.0587 87.6865 25.888C87.4092 25.7067 87.0945 25.616 86.7425 25.616C86.4012 25.616 86.0865 25.7067 85.7985 25.888C85.5105 26.0587 85.2812 26.32 85.1105 26.672C84.9505 27.0133 84.8705 27.4453 84.8705 27.968C84.8705 28.4907 84.9505 28.928 85.1105 29.28C85.2812 29.632 85.5052 29.8933 85.7825 30.064C86.0705 30.2347 86.3852 30.32 86.7265 30.32ZM92.8841 32V23.936H94.8041L95.0121 25.424C95.2041 25.072 95.4441 24.7733 95.7321 24.528C96.0308 24.2827 96.3668 24.0907 96.7401 23.952C97.1241 23.8133 97.5455 23.744 98.0041 23.744V26.032H97.2681C96.9481 26.032 96.6495 26.0693 96.3721 26.144C96.1055 26.2187 95.8708 26.3413 95.6681 26.512C95.4655 26.672 95.3108 26.896 95.2041 27.184C95.0975 27.472 95.0441 27.8347 95.0441 28.272V32H92.8841ZM103.263 32C102.698 32 102.202 31.9147 101.775 31.744C101.359 31.5627 101.034 31.2693 100.799 30.864C100.564 30.448 100.447 29.8827 100.447 29.168V25.744H99.071V23.936H100.447L100.687 21.744H102.607V23.936H104.735V25.744H102.607V29.2C102.607 29.5627 102.687 29.8133 102.847 29.952C103.007 30.0907 103.279 30.16 103.663 30.16H104.719V32H103.263ZM110.767 32V20.8H114.959C115.865 20.8 116.617 20.9547 117.215 21.264C117.812 21.5733 118.255 21.9893 118.543 22.512C118.831 23.0347 118.975 23.632 118.975 24.304C118.975 24.9227 118.836 25.4933 118.559 26.016C118.281 26.5387 117.844 26.9653 117.247 27.296C116.649 27.616 115.887 27.776 114.959 27.776H112.927V32H110.767ZM112.927 26.032H114.831C115.524 26.032 116.02 25.8773 116.319 25.568C116.628 25.248 116.783 24.8267 116.783 24.304C116.783 23.7493 116.628 23.3227 116.319 23.024C116.02 22.7147 115.524 22.56 114.831 22.56H112.927V26.032ZM120.795 32V20.8H124.539C125.84 20.8 126.912 21.0347 127.755 21.504C128.608 21.9627 129.237 22.6133 129.643 23.456C130.059 24.288 130.267 25.2693 130.267 26.4C130.267 27.5307 130.059 28.5173 129.643 29.36C129.237 30.192 128.613 30.8427 127.771 31.312C126.928 31.7707 125.851 32 124.539 32H120.795ZM122.955 30.144H124.427C125.344 30.144 126.064 29.9947 126.587 29.696C127.12 29.3973 127.499 28.9707 127.723 28.416C127.947 27.8507 128.059 27.1787 128.059 26.4C128.059 25.6107 127.947 24.9387 127.723 24.384C127.499 23.8187 127.12 23.3867 126.587 23.088C126.064 22.7893 125.344 22.64 124.427 22.64H122.955V30.144ZM132.307 32V20.8H139.603V22.544H134.467V25.536H138.579V27.232H134.467V32H132.307ZM140.662 33.824L144.662 19.536H146.758L142.758 33.824H140.662ZM152.965 32.192C151.845 32.192 150.88 31.952 150.069 31.472C149.269 30.9813 148.651 30.304 148.213 29.44C147.787 28.5653 147.573 27.5573 147.573 26.416C147.573 25.2747 147.787 24.2667 148.213 23.392C148.651 22.5173 149.269 21.8347 150.069 21.344C150.88 20.8533 151.845 20.608 152.965 20.608C154.32 20.608 155.429 20.944 156.293 21.616C157.157 22.288 157.696 23.2373 157.909 24.464H155.557C155.419 23.8667 155.125 23.4027 154.677 23.072C154.24 22.7307 153.664 22.56 152.949 22.56C152.288 22.56 151.717 22.72 151.237 23.04C150.768 23.3493 150.405 23.792 150.149 24.368C149.893 24.9333 149.765 25.616 149.765 26.416C149.765 27.2053 149.893 27.888 150.149 28.464C150.405 29.04 150.768 29.4827 151.237 29.792C151.717 30.1013 152.288 30.256 152.949 30.256C153.664 30.256 154.24 30.1013 154.677 29.792C155.115 29.472 155.403 29.0293 155.541 28.464H157.909C157.696 29.6267 157.157 30.5387 156.293 31.2C155.429 31.8613 154.32 32.192 152.965 32.192ZM163.81 32.192C162.999 32.192 162.274 32.0533 161.634 31.776C161.005 31.4987 160.503 31.0933 160.13 30.56C159.767 30.0267 159.581 29.3813 159.57 28.624H161.858C161.869 28.9547 161.954 29.2533 162.114 29.52C162.274 29.7867 162.493 30 162.77 30.16C163.058 30.3093 163.399 30.384 163.794 30.384C164.135 30.384 164.429 30.3307 164.674 30.224C164.93 30.1067 165.127 29.9467 165.266 29.744C165.405 29.5413 165.474 29.3013 165.474 29.024C165.474 28.704 165.394 28.4373 165.234 28.224C165.085 28.0107 164.871 27.8293 164.594 27.68C164.327 27.5307 164.013 27.3973 163.65 27.28C163.298 27.152 162.925 27.0187 162.53 26.88C161.645 26.592 160.967 26.208 160.498 25.728C160.039 25.248 159.81 24.6133 159.81 23.824C159.81 23.152 159.97 22.576 160.29 22.096C160.621 21.616 161.074 21.248 161.65 20.992C162.226 20.736 162.882 20.608 163.618 20.608C164.375 20.608 165.037 20.7413 165.602 21.008C166.178 21.264 166.631 21.6373 166.962 22.128C167.303 22.6187 167.479 23.1947 167.49 23.856H165.186C165.175 23.6107 165.101 23.3813 164.962 23.168C164.834 22.944 164.653 22.768 164.418 22.64C164.183 22.5013 163.906 22.432 163.586 22.432C163.309 22.4213 163.053 22.464 162.818 22.56C162.594 22.656 162.413 22.8 162.274 22.992C162.146 23.1733 162.082 23.4027 162.082 23.68C162.082 23.9467 162.146 24.1707 162.274 24.352C162.413 24.5333 162.599 24.6933 162.834 24.832C163.069 24.96 163.346 25.0827 163.666 25.2C163.986 25.3067 164.333 25.4187 164.706 25.536C165.261 25.728 165.773 25.9573 166.242 26.224C166.711 26.48 167.085 26.816 167.362 27.232C167.639 27.648 167.778 28.1973 167.778 28.88C167.778 29.4667 167.623 30.0107 167.314 30.512C167.005 31.0133 166.557 31.4187 165.97 31.728C165.394 32.0373 164.674 32.192 163.81 32.192ZM172.714 32L168.634 20.8H170.938L174.042 29.792L177.162 20.8H179.45L175.37 32H172.714Z" fill="#6000DA"/>
</svg>
