<svg width="12" height="12" viewBox="0 0 12 12" fill="none" xmlns="http://www.w3.org/2000/svg">
<path d="M10.0834 11.8337H1.91669C1.45256 11.8337 1.00744 11.6493 0.67925 11.3211C0.351062 10.9929 0.166687 10.5478 0.166687 10.0837V0.750326C0.166687 0.595616 0.228145 0.447243 0.337541 0.337847C0.446938 0.22845 0.595311 0.166992 0.75002 0.166992H8.91669C9.0714 0.166992 9.21977 0.22845 9.32917 0.337847C9.43856 0.447243 9.50002 0.595616 9.50002 0.750326V7.75033H11.8334V10.0837C11.8334 10.5478 11.649 10.9929 11.3208 11.3211C10.9926 11.6493 10.5475 11.8337 10.0834 11.8337ZM9.50002 8.91699V10.0837C9.50002 10.2384 9.56148 10.3867 9.67087 10.4961C9.78027 10.6055 9.92864 10.667 10.0834 10.667C10.2381 10.667 10.3864 10.6055 10.4958 10.4961C10.6052 10.3867 10.6667 10.2384 10.6667 10.0837V8.91699H9.50002ZM8.33335 10.667V1.33366H1.33335V10.0837C1.33335 10.2384 1.39481 10.3867 1.50421 10.4961C1.6136 10.6055 1.76198 10.667 1.91669 10.667H8.33335ZM2.50002 3.08366H7.16669V4.25033H2.50002V3.08366ZM2.50002 5.41699H7.16669V6.58366H2.50002V5.41699ZM2.50002 7.75033H5.41669V8.91699H2.50002V7.75033Z" fill="#101036"/>
</svg>
