<svg width="177" height="39" viewBox="0 0 177 39" fill="none" xmlns="http://www.w3.org/2000/svg">
<g clip-path="url(#clip0_2129_101087)">
<path d="M0.375076 28.4911L0 23.3054C0.223342 23.2889 22.4358 21.5763 30.7409 14.3809L34.1091 18.3219C24.5131 26.6359 1.35614 28.4192 0.375076 28.4911Z" fill="#CEE542"/>
<path d="M20.5599 35.901C19.0479 33.1326 8.4342 16.6241 3.0332 8.28159L7.35919 5.44238C8.00111 6.43379 23.1026 29.7664 25.0847 33.3952L20.5599 35.901Z" fill="#CEE542"/>
<path d="M15.9578 0.000318423L10.814 0.458008L14.1967 39.0001L19.3405 38.5425L15.9578 0.000318423Z" fill="#CEE542"/>
<path d="M8.62859 36.0312L4.25635 33.2647C4.93274 32.1811 20.8394 6.69345 22.4309 4.20117L26.7746 7.01291C25.1976 9.48274 8.79419 35.7659 8.62859 36.0312Z" fill="#CEE542"/>
<path d="M49.8567 31.8118C49.3427 31.8118 48.8212 31.7786 48.2963 31.7111C42.1307 30.9184 40.5256 26.3499 40.5382 24.0448L45.2718 24.071L45.2714 24.0224C45.2943 24.6105 45.6233 26.5626 48.896 26.9835C50.5272 27.1927 52.1203 26.8627 52.9562 26.141C53.3838 25.7722 53.5815 25.3379 53.5975 24.7328C53.6137 24.1233 53.4699 23.4975 52.3191 23.0492C51.7331 22.8209 50.7766 22.6328 49.7638 22.4335C46.4336 21.7781 41.4007 20.7878 41.0345 15.9763C40.8855 14.0204 41.4869 12.2836 42.7734 10.9537C44.3039 9.37162 46.7229 8.50275 49.24 8.63053C57.1391 9.02997 57.0048 15.18 57.0025 15.242L52.2722 15.066C52.2722 15.066 52.2685 15.0969 52.2712 15.1527C52.2338 14.379 51.3555 13.5097 49.0025 13.3908C47.8904 13.3352 46.7248 13.7001 46.1644 14.2794C45.9436 14.5077 45.6974 14.8654 45.7543 15.6121C45.8383 16.7162 48.0312 17.2362 50.6718 17.7559C51.8955 17.9967 53.0512 18.2241 54.027 18.6043C56.8378 19.6989 58.406 21.9792 58.3295 24.8601C58.2776 26.816 57.4848 28.5105 56.0366 29.7602C54.5029 31.0835 52.267 31.8116 49.8567 31.8118Z" fill="#101036"/>
<path d="M113.528 31.8743C111.765 31.8743 109.511 31.5511 107.793 30.1992C106.757 29.3846 105.501 27.8611 105.393 25.2273C105.156 19.4547 105.381 4.06731 105.391 3.41504L110.124 3.48653C110.122 3.64499 109.891 19.3917 110.122 25.0306C110.158 25.9031 110.454 26.2439 110.707 26.4434C111.808 27.3093 114.353 27.1502 115.345 26.9446L116.299 31.613C116.056 31.6634 114.952 31.8743 113.528 31.8743Z" fill="#101036"/>
<path d="M115.718 8.63511L100.93 10.3516L101.472 15.0864L116.26 13.37L115.718 8.63511Z" fill="#101036"/>
<path d="M70.8537 31.7247C65.1159 31.7247 60.4478 26.5225 60.4478 20.1279C60.4478 13.7333 65.1159 8.53125 70.8537 8.53125C76.5915 8.53125 81.2598 13.7334 81.2598 20.1279C81.2598 26.5223 76.5917 31.7247 70.8537 31.7247ZM70.8537 13.2974C67.726 13.2974 65.1814 16.3616 65.1814 20.1279C65.1814 23.8942 67.726 26.9585 70.8537 26.9585C73.9814 26.9585 76.5261 23.8944 76.5261 20.1279C76.5261 16.3614 73.9815 13.2974 70.8537 13.2974Z" fill="#101036"/>
<path d="M164.458 32.2884C163.487 32.2884 162.503 32.0874 161.528 31.685C158.789 30.5539 156.892 27.6716 156.916 24.6758C156.941 21.5831 158.466 19.2685 161.099 18.3258C163.627 17.4216 166.813 17.9312 169.499 19.1644C169.693 17.0581 169.397 15.51 168.611 14.5461C166.208 11.5986 160.415 14.9691 160.358 15.0036L157.924 10.9153C161.373 8.83491 168.274 6.6215 172.269 11.5218C175.097 14.9892 174.295 20.0088 173.801 22.3178C175.715 24.6635 177 28.4719 177 31.807H172.266C172.266 30.5594 171.99 29.1652 171.533 27.9144C170.581 29.3533 169.34 30.6453 167.798 31.4499C166.729 32.0085 165.603 32.2884 164.458 32.2884ZM163.931 22.6299C163.466 22.6299 163.041 22.6892 162.685 22.8166C162.328 22.9448 161.662 23.183 161.65 24.7139C161.641 25.7764 162.361 26.8774 163.325 27.2751C164.157 27.6187 164.887 27.6013 165.62 27.2186C166.734 26.6372 167.699 25.3183 168.349 23.9065C166.984 23.132 165.285 22.6299 163.931 22.6299Z" fill="#101036"/>
<path d="M89.6143 31.8724C88.267 31.8724 86.9878 31.1638 86.0319 29.8648C84.1629 27.3239 84.0107 23.789 84.0864 21.9082C84.166 19.9252 84.5558 16.6673 86.0895 13.6856C84.843 12.5646 83.7971 11.9508 83.7725 11.9366L86.1044 7.78906C86.2311 7.86099 87.4895 8.58878 89.0225 9.93202C91.9941 7.64751 96.0383 8.47262 98.9359 10.4652L96.2665 14.4012C95.993 14.2129 93.8266 12.7816 92.2578 13.5075C93.5318 15.3285 94.588 17.5675 94.914 20.2C95.2714 23.0851 95.1094 25.5264 94.4187 27.6637C93.8463 29.4359 92.4499 31.459 90.248 31.8203C90.0357 31.8552 89.8242 31.8724 89.6143 31.8724ZM89.4388 18.081C89.0882 19.3011 88.874 20.6595 88.8162 22.1009C88.74 23.9947 89.06 25.735 89.6597 26.7592C89.7526 26.6046 89.8454 26.412 89.9173 26.1893C90.3884 24.7315 90.4863 22.9656 90.2169 20.7899C90.0965 19.8177 89.8171 18.9127 89.4388 18.081Z" fill="#101036"/>
<path d="M126.37 32.2885C125.4 32.2885 124.416 32.0875 123.441 31.6851C120.701 30.554 118.805 27.6716 118.828 24.6758C118.853 21.5832 120.378 19.2686 123.012 18.3259C125.538 17.4212 128.725 17.9315 131.411 19.1645C131.606 17.0579 131.309 15.5099 130.523 14.5462C128.142 11.6255 122.323 14.9723 122.264 15.0068L119.837 10.9153C123.285 8.83495 130.186 6.62154 134.182 11.5216C137.009 14.9892 136.207 20.0095 135.713 22.3183C137.627 24.664 138.912 28.4721 138.912 31.8071H134.178C134.178 30.5595 133.902 29.1652 133.445 27.9145C132.494 29.3535 131.252 30.6456 129.71 31.4502C128.641 32.0085 127.515 32.2885 126.37 32.2885ZM125.843 22.63C125.378 22.63 124.954 22.6893 124.598 22.8166C124.24 22.9446 123.574 23.1831 123.562 24.714C123.553 25.7764 124.274 26.8775 125.237 27.2752C126.07 27.619 126.799 27.6014 127.532 27.2189C128.646 26.6373 129.611 25.3184 130.261 23.9068C128.897 23.1321 127.198 22.63 125.843 22.63Z" fill="#101036"/>
<path d="M146.551 31.8723C145.204 31.8725 143.925 31.1636 142.969 29.8645C141.1 27.3243 140.948 23.7894 141.024 21.9084C141.103 19.9266 141.492 16.671 143.024 13.6909C141.782 12.5707 140.741 11.9544 140.716 11.9404L143.042 7.78906C143.168 7.86099 144.427 8.58878 145.96 9.93202C148.932 7.64816 152.976 8.4737 155.873 10.4652L153.204 14.4012C152.93 14.2131 150.761 12.7816 149.195 13.5075C150.469 15.3285 151.525 17.5673 151.852 20.2C152.208 23.0856 152.046 25.5268 151.356 27.6634C150.783 29.4364 149.386 31.4592 147.185 31.8205C146.973 31.8552 146.761 31.8723 146.551 31.8723ZM146.375 18.0856C146.024 19.3042 145.811 20.6616 145.753 22.1009C145.677 23.9944 145.997 25.735 146.597 26.759C146.69 26.6044 146.783 26.4118 146.854 26.189C147.325 24.732 147.423 22.9656 147.154 20.7894C147.034 19.8207 146.754 18.9166 146.375 18.0856Z" fill="#101036"/>
</g>
<defs>
<clipPath id="clip0_2129_101087">
<rect width="177" height="39" fill="white"/>
</clipPath>
</defs>
</svg>
