<svg width="85" height="96" viewBox="0 0 85 96" fill="none" xmlns="http://www.w3.org/2000/svg">
<path d="M1.41366 70.131L0.489746 57.3662C1.0399 57.3255 55.7554 53.1099 76.2131 35.3981L84.51 45.0992C60.8723 65.5643 3.83031 69.954 1.41366 70.131Z" fill="#CCFF00"/>
<path d="M51.1346 88.3707C47.41 81.5563 21.2656 40.92 7.96143 20.3845L18.6175 13.3957C20.1988 15.8361 57.398 73.2702 62.2803 82.2026L51.1346 88.3707Z" fill="#CCFF00"/>
<path d="M39.7985 0L27.1279 1.12662L35.4607 95.9996L48.1312 94.873L39.7985 0Z" fill="#CCFF00"/>
<path d="M21.7447 88.6913L10.9746 81.8815C12.6408 79.2141 51.8233 16.4753 55.7436 10.3405L66.4432 17.2617C62.5587 23.3413 22.1526 88.0382 21.7447 88.6913Z" fill="#CCFF00"/>
</svg>
